<mxfile host="app.diagrams.net" agent="Mozilla/5.0 (Macintosh; Intel Mac OS X 10_15_7) AppleWebKit/537.36 (KHTML, like Gecko) Chrome/130.0.0.0 Safari/537.36" version="25.0.1" pages="2">
  <diagram name="displayHabitHistory" id="0FEPW4ecBIFKfjhu_iWq">
    <mxGraphModel dx="364" dy="418" grid="1" gridSize="10" guides="1" tooltips="1" connect="1" arrows="1" fold="1" page="1" pageScale="1" pageWidth="850" pageHeight="1100" math="0" shadow="0">
      <root>
        <mxCell id="0" />
        <mxCell id="1" parent="0" />
        <mxCell id="NGIkqE6psccTPnhRBmiB-35" value=":Player" style="rounded=0;whiteSpace=wrap;html=1;" vertex="1" parent="1">
          <mxGeometry x="60" y="260" width="120" height="60" as="geometry" />
        </mxCell>
        <mxCell id="NGIkqE6psccTPnhRBmiB-36" value=":GameSession" style="rounded=0;whiteSpace=wrap;html=1;" vertex="1" parent="1">
          <mxGeometry x="430" y="260" width="120" height="60" as="geometry" />
        </mxCell>
        <mxCell id="NGIkqE6psccTPnhRBmiB-37" value=":GameSystem" style="rounded=0;whiteSpace=wrap;html=1;" vertex="1" parent="1">
          <mxGeometry x="244" y="260" width="120" height="60" as="geometry" />
        </mxCell>
        <mxCell id="NGIkqE6psccTPnhRBmiB-38" value="" style="endArrow=none;dashed=1;html=1;rounded=0;entryX=0.565;entryY=1.011;entryDx=0;entryDy=0;entryPerimeter=0;" edge="1" parent="1" source="NGIkqE6psccTPnhRBmiB-54" target="NGIkqE6psccTPnhRBmiB-35">
          <mxGeometry width="50" height="50" relative="1" as="geometry">
            <mxPoint x="128" y="600" as="sourcePoint" />
            <mxPoint x="340" y="360" as="targetPoint" />
          </mxGeometry>
        </mxCell>
        <mxCell id="NGIkqE6psccTPnhRBmiB-39" value="" style="endArrow=none;dashed=1;html=1;rounded=0;entryX=0.565;entryY=1.011;entryDx=0;entryDy=0;entryPerimeter=0;" edge="1" parent="1">
          <mxGeometry width="50" height="50" relative="1" as="geometry">
            <mxPoint x="303.40999999999997" y="599" as="sourcePoint" />
            <mxPoint x="303.40999999999997" y="320" as="targetPoint" />
          </mxGeometry>
        </mxCell>
        <mxCell id="NGIkqE6psccTPnhRBmiB-40" value="" style="endArrow=none;dashed=1;html=1;rounded=0;entryX=0.565;entryY=1.011;entryDx=0;entryDy=0;entryPerimeter=0;" edge="1" parent="1" source="NGIkqE6psccTPnhRBmiB-57">
          <mxGeometry width="50" height="50" relative="1" as="geometry">
            <mxPoint x="489.41" y="599" as="sourcePoint" />
            <mxPoint x="489.41" y="320" as="targetPoint" />
          </mxGeometry>
        </mxCell>
        <mxCell id="NGIkqE6psccTPnhRBmiB-41" value="" style="endArrow=classic;html=1;rounded=0;" edge="1" parent="1">
          <mxGeometry width="50" height="50" relative="1" as="geometry">
            <mxPoint x="130" y="370" as="sourcePoint" />
            <mxPoint x="300" y="370" as="targetPoint" />
          </mxGeometry>
        </mxCell>
        <mxCell id="NGIkqE6psccTPnhRBmiB-42" value="clickStart()" style="text;html=1;align=center;verticalAlign=middle;resizable=0;points=[];autosize=1;strokeColor=none;fillColor=none;" vertex="1" parent="1">
          <mxGeometry x="183" y="342" width="80" height="30" as="geometry" />
        </mxCell>
        <mxCell id="NGIkqE6psccTPnhRBmiB-43" value="" style="shape=partialRectangle;whiteSpace=wrap;html=1;bottom=1;right=1;left=1;top=0;fillColor=none;routingCenterX=-0.5;rotation=-90;" vertex="1" parent="1">
          <mxGeometry x="305.26" y="373.63" width="28" height="40.91" as="geometry" />
        </mxCell>
        <mxCell id="NGIkqE6psccTPnhRBmiB-44" value="startGame()" style="text;html=1;align=center;verticalAlign=middle;resizable=0;points=[];autosize=1;strokeColor=none;fillColor=none;" vertex="1" parent="1">
          <mxGeometry x="329" y="378" width="90" height="30" as="geometry" />
        </mxCell>
        <mxCell id="NGIkqE6psccTPnhRBmiB-45" value="" style="endArrow=classic;html=1;rounded=0;" edge="1" parent="1">
          <mxGeometry width="50" height="50" relative="1" as="geometry">
            <mxPoint x="300" y="430" as="sourcePoint" />
            <mxPoint x="480" y="430" as="targetPoint" />
          </mxGeometry>
        </mxCell>
        <mxCell id="NGIkqE6psccTPnhRBmiB-46" value="startGameSession()" style="text;html=1;align=center;verticalAlign=middle;resizable=0;points=[];autosize=1;strokeColor=none;fillColor=none;" vertex="1" parent="1">
          <mxGeometry x="335" y="408" width="130" height="30" as="geometry" />
        </mxCell>
        <mxCell id="NGIkqE6psccTPnhRBmiB-47" value="" style="endArrow=classic;html=1;rounded=0;" edge="1" parent="1">
          <mxGeometry width="50" height="50" relative="1" as="geometry">
            <mxPoint x="130" y="458" as="sourcePoint" />
            <mxPoint x="305.26" y="458" as="targetPoint" />
          </mxGeometry>
        </mxCell>
        <mxCell id="NGIkqE6psccTPnhRBmiB-48" value="play()" style="text;html=1;align=center;verticalAlign=middle;resizable=0;points=[];autosize=1;strokeColor=none;fillColor=none;" vertex="1" parent="1">
          <mxGeometry x="203.26" y="430" width="50" height="30" as="geometry" />
        </mxCell>
        <mxCell id="NGIkqE6psccTPnhRBmiB-51" value="" style="endArrow=classic;html=1;rounded=0;" edge="1" parent="1">
          <mxGeometry width="50" height="50" relative="1" as="geometry">
            <mxPoint x="490" y="540" as="sourcePoint" />
            <mxPoint x="130" y="540" as="targetPoint" />
          </mxGeometry>
        </mxCell>
        <mxCell id="NGIkqE6psccTPnhRBmiB-52" value="render()" style="edgeLabel;html=1;align=center;verticalAlign=middle;resizable=0;points=[];rotation=0;" vertex="1" connectable="0" parent="NGIkqE6psccTPnhRBmiB-51">
          <mxGeometry x="-0.1124" y="8" relative="1" as="geometry">
            <mxPoint x="34" y="12" as="offset" />
          </mxGeometry>
        </mxCell>
        <mxCell id="NGIkqE6psccTPnhRBmiB-53" value="" style="endArrow=none;dashed=1;html=1;rounded=0;entryX=0.565;entryY=1.011;entryDx=0;entryDy=0;entryPerimeter=0;" edge="1" parent="1" target="NGIkqE6psccTPnhRBmiB-54">
          <mxGeometry width="50" height="50" relative="1" as="geometry">
            <mxPoint x="128" y="600" as="sourcePoint" />
            <mxPoint x="128" y="321" as="targetPoint" />
          </mxGeometry>
        </mxCell>
        <mxCell id="NGIkqE6psccTPnhRBmiB-54" value="" style="html=1;points=[[0,0,0,0,5],[0,1,0,0,-5],[1,0,0,0,5],[1,1,0,0,-5]];perimeter=orthogonalPerimeter;outlineConnect=0;targetShapes=umlLifeline;portConstraint=eastwest;newEdgeStyle={&quot;curved&quot;:0,&quot;rounded&quot;:0};" vertex="1" parent="1">
          <mxGeometry x="120" y="360" width="10" height="180" as="geometry" />
        </mxCell>
        <mxCell id="NGIkqE6psccTPnhRBmiB-55" value="" style="html=1;points=[[0,0,0,0,5],[0,1,0,0,-5],[1,0,0,0,5],[1,1,0,0,-5]];perimeter=orthogonalPerimeter;outlineConnect=0;targetShapes=umlLifeline;portConstraint=eastwest;newEdgeStyle={&quot;curved&quot;:0,&quot;rounded&quot;:0};" vertex="1" parent="1">
          <mxGeometry x="299" y="372" width="10" height="168" as="geometry" />
        </mxCell>
        <mxCell id="NGIkqE6psccTPnhRBmiB-56" value="" style="endArrow=none;dashed=1;html=1;rounded=0;entryX=0.565;entryY=1.011;entryDx=0;entryDy=0;entryPerimeter=0;" edge="1" parent="1" target="NGIkqE6psccTPnhRBmiB-57">
          <mxGeometry width="50" height="50" relative="1" as="geometry">
            <mxPoint x="489.41" y="599" as="sourcePoint" />
            <mxPoint x="489.41" y="320" as="targetPoint" />
          </mxGeometry>
        </mxCell>
        <mxCell id="NGIkqE6psccTPnhRBmiB-57" value="" style="html=1;points=[[0,0,0,0,5],[0,1,0,0,-5],[1,0,0,0,5],[1,1,0,0,-5]];perimeter=orthogonalPerimeter;outlineConnect=0;targetShapes=umlLifeline;portConstraint=eastwest;newEdgeStyle={&quot;curved&quot;:0,&quot;rounded&quot;:0};" vertex="1" parent="1">
          <mxGeometry x="485" y="424.37" width="10" height="115.63" as="geometry" />
        </mxCell>
      </root>
    </mxGraphModel>
  </diagram>
  <diagram name="habitCheckin" id="CXTQPFH6M4e74NYfSSnE">
    <mxGraphModel dx="985" dy="477" grid="1" gridSize="10" guides="1" tooltips="1" connect="1" arrows="1" fold="1" page="1" pageScale="1" pageWidth="850" pageHeight="1100" math="0" shadow="0">
      <root>
        <mxCell id="XAbNOAjU0VVLo9-ZD2AN-0" />
        <mxCell id="XAbNOAjU0VVLo9-ZD2AN-1" parent="XAbNOAjU0VVLo9-ZD2AN-0" />
        <mxCell id="J7OzYloAnbf960WGr8lF-0" style="edgeStyle=orthogonalEdgeStyle;rounded=0;orthogonalLoop=1;jettySize=auto;html=1;fontFamily=Tahoma;fontSize=14;fontColor=#000066;endArrow=none;endFill=0;fillColor=#ffe6cc;strokeColor=#d79b00;" edge="1" parent="XAbNOAjU0VVLo9-ZD2AN-1" source="J7OzYloAnbf960WGr8lF-1" target="J7OzYloAnbf960WGr8lF-2">
          <mxGeometry relative="1" as="geometry" />
        </mxCell>
        <mxCell id="J7OzYloAnbf960WGr8lF-1" value="Player" style="shape=umlActor;verticalLabelPosition=bottom;labelBackgroundColor=#ffffff;verticalAlign=top;html=1;strokeColor=#000066;fillColor=#FF8000;fontFamily=Tahoma;fontSize=14;fontColor=#000066;" vertex="1" parent="XAbNOAjU0VVLo9-ZD2AN-1">
          <mxGeometry x="40" y="160" width="30" height="60" as="geometry" />
        </mxCell>
        <mxCell id="J7OzYloAnbf960WGr8lF-2" value="Game System" style="rounded=0;whiteSpace=wrap;html=1;labelBackgroundColor=#ffffff;strokeColor=#000066;fillColor=none;fontFamily=Tahoma;fontSize=14;fontColor=#000066;" vertex="1" parent="XAbNOAjU0VVLo9-ZD2AN-1">
          <mxGeometry x="360" y="170" width="70" height="40" as="geometry" />
        </mxCell>
        <mxCell id="J7OzYloAnbf960WGr8lF-3" value="" style="endArrow=classic;html=1;fontFamily=Tahoma;fontSize=14;fontColor=#000066;" edge="1" parent="XAbNOAjU0VVLo9-ZD2AN-1">
          <mxGeometry width="50" height="50" relative="1" as="geometry">
            <mxPoint x="100" y="210" as="sourcePoint" />
            <mxPoint x="340" y="210" as="targetPoint" />
          </mxGeometry>
        </mxCell>
        <mxCell id="J7OzYloAnbf960WGr8lF-4" value="clickExitButton()&lt;div&gt;readContent()&lt;/div&gt;" style="text;html=1;resizable=0;points=[];align=center;verticalAlign=middle;labelBackgroundColor=#ffffff;fontSize=14;fontFamily=Tahoma;fontColor=#000066;" vertex="1" connectable="0" parent="J7OzYloAnbf960WGr8lF-3">
          <mxGeometry x="-0.6182" y="4" relative="1" as="geometry">
            <mxPoint x="64" y="44" as="offset" />
          </mxGeometry>
        </mxCell>
        <mxCell id="J7OzYloAnbf960WGr8lF-5" value="" style="endArrow=none;html=1;fontFamily=Tahoma;fontSize=14;fontColor=#000066;edgeStyle=orthogonalEdgeStyle;exitX=0.5;exitY=0;exitDx=0;exitDy=0;rounded=0;startArrow=none;startFill=0;endFill=0;fillColor=#ffe6cc;strokeColor=#d79b00;entryX=1;entryY=0.25;entryDx=0;entryDy=0;" edge="1" parent="XAbNOAjU0VVLo9-ZD2AN-1" target="J7OzYloAnbf960WGr8lF-2">
          <mxGeometry width="50" height="50" relative="1" as="geometry">
            <mxPoint x="390" y="170" as="sourcePoint" />
            <mxPoint x="440" y="180" as="targetPoint" />
            <Array as="points">
              <mxPoint x="390" y="80" />
              <mxPoint x="490" y="80" />
              <mxPoint x="490" y="180" />
            </Array>
          </mxGeometry>
        </mxCell>
        <mxCell id="J7OzYloAnbf960WGr8lF-6" value="" style="endArrow=classic;html=1;fontFamily=Tahoma;fontSize=14;fontColor=#000066;" edge="1" parent="XAbNOAjU0VVLo9-ZD2AN-1">
          <mxGeometry width="50" height="50" relative="1" as="geometry">
            <mxPoint x="500" y="120" as="sourcePoint" />
            <mxPoint x="420" y="70" as="targetPoint" />
            <Array as="points">
              <mxPoint x="500" y="70" />
            </Array>
          </mxGeometry>
        </mxCell>
        <mxCell id="J7OzYloAnbf960WGr8lF-7" value="displayConfirmation()&lt;div&gt;terminateGameSession()&lt;/div&gt;" style="text;html=1;resizable=0;points=[];align=center;verticalAlign=middle;labelBackgroundColor=#ffffff;fontSize=14;fontFamily=Tahoma;fontColor=#000066;" vertex="1" connectable="0" parent="J7OzYloAnbf960WGr8lF-6">
          <mxGeometry x="0.2" relative="1" as="geometry">
            <mxPoint x="-2" y="-40" as="offset" />
          </mxGeometry>
        </mxCell>
        <mxCell id="J7OzYloAnbf960WGr8lF-8" style="edgeStyle=orthogonalEdgeStyle;rounded=0;orthogonalLoop=1;jettySize=auto;html=1;entryX=0.5;entryY=1;entryDx=0;entryDy=0;startArrow=none;startFill=0;endArrow=none;endFill=0;fontFamily=Tahoma;fontSize=14;fontColor=#000066;fillColor=#ffe6cc;strokeColor=#d79b00;exitX=1;exitY=0.75;exitDx=0;exitDy=0;" edge="1" parent="XAbNOAjU0VVLo9-ZD2AN-1" source="J7OzYloAnbf960WGr8lF-2">
          <mxGeometry relative="1" as="geometry">
            <Array as="points">
              <mxPoint x="490" y="200" />
              <mxPoint x="490" y="300" />
              <mxPoint x="390" y="300" />
            </Array>
            <mxPoint x="450" y="200" as="sourcePoint" />
            <mxPoint x="390" y="210" as="targetPoint" />
          </mxGeometry>
        </mxCell>
        <mxCell id="J7OzYloAnbf960WGr8lF-9" value="" style="endArrow=classic;html=1;fontFamily=Tahoma;fontSize=14;fontColor=#000066;" edge="1" parent="XAbNOAjU0VVLo9-ZD2AN-1">
          <mxGeometry width="50" height="50" relative="1" as="geometry">
            <mxPoint x="500" y="260" as="sourcePoint" />
            <mxPoint x="430" y="310" as="targetPoint" />
            <Array as="points">
              <mxPoint x="500" y="310" />
            </Array>
          </mxGeometry>
        </mxCell>
        <mxCell id="J7OzYloAnbf960WGr8lF-10" value="stopPlayMode()" style="text;html=1;resizable=0;points=[];align=center;verticalAlign=middle;labelBackgroundColor=#ffffff;fontSize=14;fontFamily=Tahoma;fontColor=#000066;" vertex="1" connectable="0" parent="J7OzYloAnbf960WGr8lF-9">
          <mxGeometry x="-0.3" y="-1" relative="1" as="geometry">
            <mxPoint x="-9" y="38" as="offset" />
          </mxGeometry>
        </mxCell>
      </root>
    </mxGraphModel>
  </diagram>
</mxfile>
